HIERARCHY
ROOT Hips
{
    OFFSET 0.000000 0.000000 0.000000
    CHANNELS 6 Xposition Yposition Zposition Zrotation Xrotation Yrotation
    JOINT Spine
    {
        OFFSET -0.000000 7.236184 0.000000
        CHANNELS 3 Zrotation Xrotation Yrotation
        JOINT Spine1
        {
            OFFSET -0.000000 20.420147 0.000000
            CHANNELS 3 Zrotation Xrotation Yrotation
            JOINT Neck
            {
                OFFSET -0.000000 20.336288 1.848754
                CHANNELS 3 Zrotation Xrotation Yrotation
                JOINT Head
                {
                    OFFSET -0.000000 12.354461 -1.764923
                    CHANNELS 3 Zrotation Xrotation Yrotation
                    End Site
                    {
                        OFFSET -0.000000 22.061537 0.000000
                    }
                }
            }
            JOINT LeftShoulder
            {
                OFFSET 3.573296 18.396038 -0.314103
                CHANNELS 3 Zrotation Xrotation Yrotation
                JOINT LeftArm
                {
                    OFFSET 10.880760 0.000000 0.000000
                    CHANNELS 3 Zrotation Xrotation Yrotation
                    JOINT LeftForeArm
                    {
                        OFFSET 27.185530 0.000000 0.000000
                        CHANNELS 3 Zrotation Xrotation Yrotation
                        JOINT LeftHand
                        {
                            OFFSET 27.825975 0.000000 0.000000
                            CHANNELS 3 Zrotation Xrotation Yrotation
                            End Site
                            {
                                OFFSET 13.236923 0.000000 0.000000
                            }
                        }
                    }
                }
            }
            JOINT RightShoulder
            {
                OFFSET -3.474926 18.396038 -0.314103
                CHANNELS 3 Zrotation Xrotation Yrotation
                JOINT RightArm
                {
                    OFFSET -10.880760 0.000000 0.000000
                    CHANNELS 3 Zrotation Xrotation Yrotation
                    JOINT RightForeArm
                    {
                        OFFSET -27.185530 0.000000 0.000000
                        CHANNELS 3 Zrotation Xrotation Yrotation
                        JOINT RightHand
                        {
                            OFFSET -27.825975 0.000000 0.000000
                            CHANNELS 3 Zrotation Xrotation Yrotation
                            End Site
                            {
                                OFFSET -13.236923 0.000000 0.000000
                            }
                        }
                    }
                }
            }
        }
    }
    JOINT LeftUpLeg
    {
        OFFSET 8.824615 0.000000 0.000000
        CHANNELS 3 Zrotation Xrotation Yrotation
        JOINT LeftLeg
        {
            OFFSET -0.000000 -35.111282 0.000000
            CHANNELS 3 Zrotation Xrotation Yrotation
            JOINT LeftFoot
            {
                OFFSET -0.000000 -42.324711 0.000000
                CHANNELS 3 Zrotation Xrotation Yrotation
                JOINT LeftToeBase
                {
                    OFFSET -0.000000 -5.735999 13.236923
                    CHANNELS 3 Zrotation Xrotation Yrotation
                    End Site
                    {
                        OFFSET -0.000000 0.000000 3.529846
                    }
                }
            }
        }
    }
    JOINT RightUpLeg
    {
        OFFSET -8.824615 0.000000 0.000000
        CHANNELS 3 Zrotation Xrotation Yrotation
        JOINT RightLeg
        {
            OFFSET -0.000000 -35.111282 0.000000
            CHANNELS 3 Zrotation Xrotation Yrotation
            JOINT RightFoot
            {
                OFFSET -0.000000 -42.324711 0.000000
                CHANNELS 3 Zrotation Xrotation Yrotation
                JOINT RightToeBase
                {
                    OFFSET -0.000000 -5.735999 13.236923
                    CHANNELS 3 Zrotation Xrotation Yrotation
                    End Site
                    {
                        OFFSET -0.000000 0.000000 3.529846
                    }
                }
            }
        }
    }
}
MOTION
Frames:    5
Frame Time:    0.008333
-7.345749    81.881294    101.867767    3.011125    -8.589052    175.426071    -2.127534    -7.748213    -2.897521    2.207115    2.563082    -2.802766    3.767853    4.290817    -5.393770    8.137549    -5.429354    -4.493131    3.562059    13.749572    -1.198398    -51.539627    32.999256    -30.319342    0.361065    -3.661427    -14.906131    13.171438    -3.488260    1.092908    5.532936    17.528511    -10.259644    57.931042    35.121326    19.520559    -1.248140    -6.177735    16.346613    -11.889340    -5.645362    -3.416605    11.433485    -11.612456    4.581408    -2.002161    17.962439    8.582207    -6.451026    -11.285693    -11.896526    -0.506675    -0.311746    0.561947    -13.744523    -27.610931    -0.953247    9.800494    39.620380    -1.525711    11.270249    0.562974    -8.058365    0.779010    -7.148044    -0.851411
-7.022418    81.800095    101.790771    2.722355    -8.640299    175.923294    -2.248122    -7.879975    -2.794465    1.942576    2.530388    -2.682448    3.649426    4.281428    -5.381690    7.916545    -5.527427    -4.502934    3.541565    13.849220    -1.151601    -51.454697    33.487743    -30.085348    0.230036    -3.623321    -15.021767    13.126486    -3.457050    1.183548    5.507168    17.536406    -10.230152    57.796444    35.423359    19.668081    -1.263825    -6.189061    16.407223    -11.968557    -5.647743    -3.451554    11.357924    -11.746853    4.619224    -1.967546    17.934601    8.247025    -6.675114    -11.170835    -12.123693    -0.482922    -0.329481    0.535621    -13.555115    -26.338287    -0.485687    9.348888    37.787518    -1.220198    11.199081    0.191225    -8.089476    0.807851    -7.160868    -0.882951
-6.689568    81.715813    101.710403    2.435820    -8.684366    176.406921    -2.357281    -8.010199    -2.684669    1.676556    2.502359    -2.556150    3.531648    4.278696    -5.342024    7.662307    -5.598144    -4.492345    3.515798    13.954907    -1.092925    -51.383148    33.967319    -29.830410    0.113965    -3.590546    -15.151295    13.074926    -3.431011    1.261603    5.476470    17.543127    -10.188197    57.632587    35.731220    19.838758    -1.268385    -6.195302    16.457659    -12.035822    -5.647123    -3.485875    11.292641    -11.884357    4.639656    -1.940826    17.938150    7.943888    -6.909132    -11.055944    -12.348973    -0.457565    -0.352521    0.507517    -13.383207    -25.099951    -0.072184    8.935553    36.039661    -0.949293    11.087594    -0.249317    -8.149609    0.829169    -7.160564    -0.906249
-6.347109    81.629265    101.627686    2.154887    -8.722224    176.876816    -2.454010    -8.138081    -2.569401    1.412431    2.478083    -2.425293    3.415364    4.282329    -5.274113    7.376268    -5.641435    -4.460371    3.485528    14.065744    -1.022134    -51.333027    34.433933    -29.551586    0.012996    -3.567252    -15.290981    13.017047    -3.414078    1.328954    5.439220    17.546339    -10.134175    57.443268    36.037899    20.030312    -1.260177    -6.193707    16.499447    -12.094261    -5.640903    -3.519378    11.241026    -12.028705    4.637086    -1.922598    17.976847    7.672429    -7.151210    -10.940918    -12.566026    -0.431471    -0.380389    0.478598    -13.222158    -23.901062    0.272773    8.547222    34.383411    -0.700940    10.933928    -0.761232    -8.241033    0.838811    -7.137630    -0.916755
-5.993364    81.540970    101.543442    1.881742    -8.754752    177.335190    -2.538575    -8.262962    -2.449162    1.154118    2.456517    -2.290439    3.299673    4.291555    -5.177422    7.059145    -5.657358    -4.406106    3.449780    14.182099    -0.938820    -51.310783    34.883934    -29.246391    -0.074488    -3.556470    -15.437032    12.954206    -3.409143    1.388289    5.393047    17.544081    -10.068951    57.231663    36.338089    20.241375    -1.238336    -6.182482    16.534174    -12.148931    -5.627361    -3.551371    11.206383    -12.185063    4.607159    -1.913004    18.055832    7.432956    -7.402035    -10.824816    -12.773396    -0.406065    -0.413962    0.450446    -13.065617    -22.741507    0.538520    8.175112    32.816238    -0.465941    10.733506    -1.343624    -8.364275    0.834242    -7.080115    -0.911680
